<svg id="Layer_1" data-name="Layer 1" xmlns="http://www.w3.org/2000/svg" xmlns:xlink="http://www.w3.org/1999/xlink" viewBox="0 0 434 300"><defs><style>.cls-1{fill:none;}.cls-2{fill:#e6e6e6;}.cls-3{opacity:0.76;}.cls-4{fill:url(#Mezzotint);}.cls-5{opacity:0.79;}</style><pattern id="Mezzotint" data-name="Mezzotint" width="72" height="72" patternUnits="userSpaceOnUse" viewBox="0 0 72 72"><rect class="cls-1" width="72" height="72"/><path class="cls-2" d="M6.59,71.39c-5,3.1.9,6.6,1,10,1.4.4,2-1.3,3-2,.3-.9-.5-1.4-1-2l-1,1c-.3-1.7.8-4-1-5,.9.3,1.4-.5,2-1-1.8.7-.7,2.7-1,4,.7,1,2.4,1.6,2,3l-2,2,1,1c-.5.6-1.3,1.1-1,2,1.6,1.6,3.9,4.6,6,2l-1,1c2.5.5-3.1.4-4-1-1-2.6-1.6-6.3-5-7l1,1c2.7-1.7-.7-3.3-1-5h-1C4.59,74.09,5.59,71.89,6.59,71.39Z"/><path class="cls-2" d="M14.59,69c-.36,1.58,1.52,4.57-2.55,2.87l.51,1.39c-.81-.07-1.88-.43-2,.33.35.78.46,1.65,1.52,2.21l-1.53-.25C7.32,72.72,16.27,73.64,14.59,69Z"/><path class="cls-2" d="M59.81,70.18c-.75-.2-1.93.65-3,1.22l-1.75,4.75L57,75l.62,1.77,3.76-2.21-1.58,2C57.22,77.39,57.42,76,57,75l-1.88,1.11c-.26-.43-.18-1.17-1.4-.77,4.53-2.29,2.38-3.9,3.63-5.85Z"/><path class="cls-2" d="M59.48,71.71c-.7.64-.24,1.47-.09,2.24,1.28-1.69,5.54-2,2.9-5.25.93.17,1,1.12,1.27,1.84-2.42,0-2,4.93-5,2.93Z"/><path class="cls-2" d="M44.59,76.39l-.7-.7,1-1,.7.7-1,1,2,2c-.5.6-1.3,1.1-1,2h-1c-.2-1.4,2.4-2.9,0-4h-1l2-6C45.29,72.39,41.89,74.39,44.59,76.39Z"/><polygon class="cls-2" points="33.64 76.94 29.64 73.94 33.64 71.94 30.64 73.94 33.64 76.94"/><path class="cls-2" d="M20.82,67.59c-1.45,1.81-1.23,3.6-3.1,5.45l-1.4.85,1-.59.4-1.67-1,.59c.06,1.25-1.21,2.81-2.2,4.2l7.3-8Z"/><path class="cls-2" d="M25.21,75.26,25,71.57c-3.19,2.9-4.25,1.2-6.16,1.55l1.61-.24-1,1.39c2.31-2.58,5.5.53,7.66,1.31l1-1.39A5.39,5.39,0,0,1,25.21,75.26Z"/><path class="cls-2" d="M42.76,70.57l-2,3c.4,2.1-.6-3.1-3-4l3,3Z"/><path class="cls-2" d="M29.09,70c4.06-1.24.07,2.47.19,3.69-.91,1.25.85-1.37,2.14-5.9A5.88,5.88,0,0,1,29.09,70Z"/><path class="cls-2" d="M77,17.76c.07-.75-.14-1.7.72-2-.07.75.14,1.7-.72,2L72.71,17v2.79L72,17.6C73.86,17.22,74.94,16.5,77,17.76Z"/><path class="cls-2" d="M72,5.68l-1-.17V4.12l1,.17V5.68l2.87.49c.07.78-.14,1.65.72,2.21L74.92,9c-1.15-1-.36-3.75-2.87-3.28l-.72.57L68.46.19C69.68,2,68.67,5.59,72,5.68Z"/><path class="cls-2" d="M74.28,21.12l0-.92,4.35-.44,0-.92,2.18-.22-1.08-.35c2.4-.61-6.24,2-8.77,3.64C71.67,21.29,73.08,21.28,74.28,21.12Z"/><path class="cls-2" d="M73.89,28.94l.31-1.42L75.28,29l-3.63.54C72.25,28.72,73.11,29,73.89,28.94Z"/><path class="cls-2" d="M68,62.23c2.73.52,4.43-.57,6.57-.87l-3.36.75-1.37-.88C71.16,60.21,67.79,61.61,68,62.23Z"/><polygon class="cls-2" points="67.54 40.25 67.06 39.95 71.41 39.51 71.43 38.59 73.61 38.37 72.53 38.02 67.54 40.25"/><polygon class="cls-2" points="5.14 61.69 4.61 60.38 7.24 59.33 3.82 62.22 5.14 61.69"/><path class="cls-2" d="M6.59-.61c-5,3.1.9,6.6,1,10,1.4.4,2-1.3,3-2,.3-.9-.5-1.4-1-2l-1,1c-.3-1.7.8-4-1-5,.9.3,1.4-.5,2-1-1.8.7-.7,2.7-1,4,.7,1,2.4,1.6,2,3l-2,2,1,1c-.5.6-1.3,1.1-1,2,1.6,1.6,3.9,4.6,6,2l-1,1c2.5.5-3.1.4-4-1-1-2.6-1.6-6.3-5-7l1,1c2.7-1.7-.7-3.3-1-5h-1C4.59,2.09,5.59-.11,6.59-.61Z"/><path class="cls-2" d="M51.59,3.39l-.7-.7,1-1,.7.7-1,1c-1-.7-1.6-2.4-3-2-.5.6-1.3,1.1-1,2,2.6,2.5-1.3-.8,0-2C49.49.79,50.39,2.29,51.59,3.39Z"/><path class="cls-2" d="M13.59,8.14c-.9-.3-1.4.5-2,1-.3.9.5,1.4,1,2,2.1-.3,3.3-2.7,5-4-.6-1.2-1.9-1-3-1,1.1,0,2.4.2,3-1l-1,1,1,1-3,3,1,1c0,2.5.2-1-1-1-1.1,1.3-2.6,1.5-4,2l1-1-1-1a4.66,4.66,0,0,0,2-5C12.59,6.24,12.39,7.54,13.59,8.14Z"/><path class="cls-2" d="M56.09,13.64c.6,1.9-.9,2.8-2,4l1,1c-.5.6-1.3,1.1-1,2-2-2.7-4,.7-6,1-1.2,1.4,2.2-1.4,1-3-.3.9.5,1.4,1,2l5-2-1-1,2-2-2-2Z"/><path class="cls-2" d="M59.84,20.64c3.4,2.1,1.75,2.75,1.75,3.75l-2,2c2.7,4,4.8-7.2,7.3-3.7,2.5,1.3-.3.3-1-1l-6.3,6.7,1-1-1-1c1.3-2.7,4-3.25.25-6.75l1-1C61.14,19.54,60.34,20,59.84,20.64Z"/><path class="cls-2" d="M64.82,25.25c2.15.69-1.89,3.41-2.82,5.14a5.38,5.38,0,0,1,3-.85c.64.32-.32,1.19-.85,1.91-1.81,1.25-3.08.67-4.63,1l3.51.33a5.9,5.9,0,0,1,2.48-2c-3.71-1.18.87-4.18.41-6.79Z"/><path class="cls-2" d="M56.59,35.39c.6-.5,1.1-1.3,2-1l1,1,1-1v2a3.17,3.17,0,0,0-5-1v-1Z"/><path class="cls-2" d="M54.84,38.89c-.6-.5-1.3-.25-2.2,0,1.9-1.2-1.9-3.8,0-5C51.34,35.54,54.14,36.89,54.84,38.89Z"/><path class="cls-2" d="M58,50.59c1.1,0,2.4-.2,3,1l-.7-.7,2-2,.7.7-3,3c.3-.9-.5-1.4-1-2Z"/><path class="cls-2" d="M19.59,59.39c-.6-1.2-1.9-1-3-1-2,1,.3,2.8,1,4l-.7-.7,1-1,.7.7-1,1c-1.5-.1-.9-4.5-4-3l-1,1c.5.6,1.3,1.1,1,2l-1,1,3,2c-.6-.5-1.1-1.3-2-1l-1,1c.3-.9-.5-1.4-1-2,.9.3,1.4-.5,2-1-.5-1.4-.7-2.9-2-4,1.2,1,5.3,2.2,5-1C18,57,18.59,58.69,19.59,59.39Z"/><path class="cls-2" d="M10.59,61.39c-.5.6-1.3,1.1-1,2-.6-.5-1.1-1.3-2-1l.7.7-1,1-.7-.7,2-2,1,1Z"/><path class="cls-2" d="M3.59,66.39c1.9,2.7,3.6-.9,6,0-.5.6-1.3,1.1-1,2-.6-.5-1.1-1.3-2-1-.5.6-1.3,1.1-1,2,1,0-5.7-2.7-1-6C4.59,64.49,4.79,65.79,3.59,66.39Z"/><path class="cls-2" d="M4.9,45c1,1.71,2.7,1.18,4.32,1.14l.09,1.41c.78,0,1.68-.25,2.16.57-.7-3.29,3.17-2.54,4.72-3.84,1.84,0-2.5.73-2.91-1.23.87.37.72,1.3.84,2.07L9.31,47.59l-.09-1.41-2.82.18-.18-2.82Z"/><path class="cls-2" d="M6.23,25,7,26.2l2.32-1.62.81,1.16,1.16-.81-.18,1c1.6-.42-4.56.5-7.07-.25C4.92,26.13,5.55,25.43,6.23,25Z"/><path class="cls-2" d="M57.44,6.32c3.8,1.25-1.08,4.5.81,6.66C56.81,10.77,60,8.4,57.44,6.32Z"/><polygon class="cls-2" points="61.64 15.95 60.1 17.23 63.39 10.95 61.64 15.95"/><path class="cls-2" d="M7.89,28.94l1,1-3,3,1,1h-1v-2c.9.3,1.4-.5,2-1,.3-.9-.5-1.4-1-2,.6-.5,1.1-1.3,2-1Z"/><path class="cls-2" d="M14.14,34.44c.6.5,1.1,1.3,2,1,1.2-.6,1-1.9,1-3h1l-1,1,.7-.7,2,2-.7.7c-.6-.5-1.1-1.3-2-1l-2,2,1,1-1,1c1.5-2.6-3-4,0-6C14.64,33,13.84,33.54,14.14,34.44Z"/><polygon class="cls-2" points="5.14 36.44 7.14 35.44 9.14 37.44 5.14 36.44"/><path class="cls-2" d="M13.14,36.44c-1,1.3-3.1,2.2-3,4v1h-2v-1c1.4.4,2-1.3,3-2v-3C11.74,35.94,12.24,36.74,13.14,36.44Z"/><path class="cls-2" d="M66.65,9.14l1,.23L67.76,11l-1-.23c-.15-2-.1-1.33,1.25-2.25-.47-.62.69-2.34-.25-2.25l.74-.84Z"/><path class="cls-2" d="M49.39,71.44c-1.1.5,4.1-2.5,3-5C53.49,68.94,50.39,69.74,49.39,71.44Z"/><path class="cls-2" d="M61.15,54.53V53.12a3.17,3.17,0,0,0,4.22-2.86c1.47-1.5-2.32,1.79,0,2.83-2.62-.9-4,1.38-5.63,2.88v1.41c4.24-.46-2.11,1.15,0-1.41v1H58.34V56C59.61,56.39,60.38,55.32,61.15,54.53Z"/><path class="cls-2" d="M62.14,67.44l-3,5c-3.3,1.7,6.8-7.2-1-4l-.7.7-1-1,.7-.7c1,2,2.8-.3,4-1-2.4-1.2-2.4-3.8,0-5C58.14,62.34,59.64,65.84,62.14,67.44Z"/><path class="cls-2" d="M53.89,55.94h1v2h-1c-.6-1.9.9-2.8,2-4-.6-.5-1.1-1.3-2-1l1-1c-1-1-3.3-2.8-1-4C50.59,51.34,61.49,54.44,53.89,55.94Z"/><path class="cls-2" d="M51.64,27.19v1c-.6-1.2-1.9-1-3-1l-1,1c2.7.1,1.4-1.65,1.5-3.25C51.84,27.94,48.34,25.69,51.64,27.19Z"/><path class="cls-2" d="M57.39,31.94c.6-.5,1.1-1.3,2-1-.6.5-1.1,1.3-2,1l-3-3-2,2,1-2C55.19,29.74,56.59,29.84,57.39,31.94Z"/><path class="cls-2" d="M62.14,5.19l1,1c-1.4-.4-2,1.3-3,2l2,2c1.3-1,2.2-3.1,4-3-1.6-.5-3.7,5.1-6,2a16.47,16.47,0,0,1,3-5Z"/><path class="cls-2" d="M55.64,5.19c.2,1.5-1.7,2.3-1,4l1,1-.7-.7,1-1,.7.7c-1.2.6-1,1.9-1,3l-2-7Z"/><path class="cls-2" d="M58.89,18.19c-1.2-.6-1-1.9-1-3,1.4.4,2-1.3,3-2l-1-2C63.39,13.89,56.59,14.79,58.89,18.19Z"/><path class="cls-2" d="M4.14,47.94l1.44.25L4.14,49.34l-.72-3.61C4.28,46.3,4.07,47.17,4.14,47.94Z"/><path class="cls-2" d="M48.24,14.76c2.09.06,1-4.78,4.12-7.87L47.5,6.7,50.88,7l.62-1.42C52.61,8.43,50.66,11.13,48.24,14.76Z"/><path class="cls-2" d="M5.69,52.71c-.5-2.38,2.15-2.42,3.59-2.87v1.39c-2.37-1-4,0-4.31,2l-.72-.82Z"/><path class="cls-2" d="M2.27,53.92v1.39l2.87.49v1.39l1.44.25L5.86,58c1.58.83-4.09-2.86-5.74-5.16C.54,53.76,1.48,53.71,2.27,53.92Z"/><path class="cls-2" d="M14.7,54.7V53.31l1.44.25v1.39c2.73,1-5.6-2.49-4.31,2-1.87,1.07,2-.49.72-2l-2.15.33C11.76,55,13,54.26,14.7,54.7Z"/><path class="cls-2" d="M49.15,32.31c1.65.07,3.8,1.28,5,.16-.86,3.19,3.16,1.66,4.31,3.52-.43.76-1.36.39-2.15.33.14-1.65-2.58-2.95-4.31-3.52l-2.87-.49.72,3.61-.72-5Z"/><path class="cls-2" d="M15.58,23.32c-2.59.53-.93,3.53-1.44,5.33-.43-.91-1.36-.86-2.15-1.07-.86.27-.65,1.21-.72,2,.72,1.38,2.37.89,3.59,1.31l-3.59.08c-.07-.78.14-1.65-.72-2.21,4.45-.91,2.51-4.24,5-6.8Z"/><path class="cls-2" d="M3.8,38.05l-1-.31L3,36.36l1,.31-.2,1.38,2.77.9c0,.78-.38,1.61.39,2.29l-.79.46c-1-1.19.18-3.77-2.37-3.66L3,38.52,1.17,33.06C2.11,35,.47,37.48,3.8,38.05Z"/><path class="cls-2" d="M9.55,33.29c.49-3.51-.27,2.19,2.17.15l-3,.25Z"/><path class="cls-2" d="M5,17.76c.07-.75-.14-1.7.72-2-.07.75.14,1.7-.72,2L.72,17v2.79L0,17.6C1.86,17.22,2.94,16.5,5,17.76Z"/><path class="cls-2" d="M8.27,16.63c.71-.27,1.45-.89,2.08-.24l.42,1.39L12,17.16l-.82,2c-.14-2.58-1.81-3.59-3.76-2.93l.41-1Z"/><path class="cls-2" d="M18,29.56l1.13-.85-.28,2-2.69-2.4C17.13,28.12,17.52,29,18,29.56Z"/><path class="cls-2" d="M1.24,10.57l1.44.25c-1.29.47-.5,2.21-.72,3.36l2.87.49c.22-1.56-.65-3.8.72-4.75-1.51.51,1,6.3-2.87,5.08A17.8,17.8,0,0,1,1.24,9.17Z"/><path class="cls-2" d="M0,5.68l-1-.17V4.12l1,.17V5.68l2.87.49C3,7,2.77,7.82,3.64,8.39L2.92,9C1.77,7.93,2.56,5.21,0,5.68l-.72.57L-3.54.19C-2.32,2-3.33,5.59,0,5.68Z"/><path class="cls-2" d="M63.89,47.19c.07-.75-.14-1.7.72-2-.07.75.14,1.7-.72,2l-4.31-.74v2.79L58.86,47C60.73,46.65,61.81,45.93,63.89,47.19Z"/><path class="cls-2" d="M66.48,33.68c-.93,1.58-.14,4.57-3.59,2.87v1.39c-.79-.07-1.72-.43-2.15.33.07.78-.14,1.65.72,2.21L60,40.24C57.86,37.36,66.48,38.28,66.48,33.68Z"/><path class="cls-2" d="M14.59-3C14.24-1.37,16.11,1.62,12-.09l.51,1.39c-.81-.07-1.88-.43-2,.33.35.78.46,1.65,1.52,2.21L10.52,3.6C7.32.72,16.27,1.64,14.59-3Z"/><path class="cls-2" d="M65.72,12c-2.39.53.35,3.53.5,5.33-.76-.91-1.68-.86-2.54-1.06-.76.27-.21,1.21,0,2,1.22,1.38,2.7.89,4.07,1.31l-3.56.08c-.35-.78-.46-1.65-1.52-2.21,4.12-.91,1-4.24,2.55-6.8Z"/><path class="cls-2" d="M67.89,63.62c-3.2-1.7-3.46,1.15-3.06,3.44,1.52.64,2-.27,2.54-.9-.76.27-.21,1.21,0,2l.51-.57,1,.82-.51.57c3.86.56-1.47.09-2-1.64-4-1.42-.1,2.87-1.53,3.69l-.5-5.33.36,1-1.52-.25-.36-1C67,66.81,62.6,60.93,67.89,63.62Z"/><path class="cls-2" d="M56.59,38c-.36,1.58,1.52,4.57-2.55,2.87l.51,1.39c-.81-.07-1.88-.43-2,.33.35.78.46,1.65,1.52,2.21l-1.53-.25C49.32,41.72,58.27,42.64,56.59,38Z"/><path class="cls-2" d="M52.56,24.35c1.63,1.11,1.47,2.86,3.56,3.85l1.53.25-1.07-.17-.51-1.39,1.07.17c0,1.18,1.42,2.13,2.54,3L51.54,25.5Z"/><path class="cls-2" d="M59.61,19.26c-3.56.87-.16,6.07-3.57,6L55,25.07l-.51-1.39,1.07.17L56,25.24c3.61,1.24,1-2.47,1.53-3.69l-1.52-.25Z"/><path class="cls-2" d="M10.71,23.51l-.19-3.69c-3.19,2.9-4.25,1.2-6.16,1.55L6,21.13,5,22.53c2.31-2.58,5.5.53,7.66,1.31l1-1.39A5.39,5.39,0,0,1,10.71,23.51Z"/><path class="cls-2" d="M2.28,21.12l0-.92,4.35-.44,0-.92,2.18-.22-1.08-.35c2.4-.61-6.24,2-8.77,3.64C-.33,21.29,1.09,21.28,2.28,21.12Z"/><path class="cls-2" d="M1.89,28.94l.31-1.42L3.28,29l-3.63.54C.25,28.72,1.11,29,1.89,28.94Z"/><polygon class="cls-2" points="10.11 44.26 11.76 44.76 7.7 42.33 7.25 42.8 9.67 44.74 10.11 44.26"/><path class="cls-2" d="M15.89,50.19c-.84.07-2,.43-1.92-.33.43-1.18,2.2-2.13,3.64-3l-.3-.57-1,1.39.71-1-3.23.49-.71,1c.84-.06,2-.43,1.92.33l-2,2.79-1.62.25-1,1.39c3-3,6.16-1.56,7.89-4.92A5.89,5.89,0,0,1,15.89,50.19Z"/><path class="cls-2" d="M77.49,31.1c-3.09,1.77-5.74.55-9.33-.9-.29,2,5-.2,7.9,2Z"/><path class="cls-2" d="M71.76,46.83c3.66.56-1.51.09-1.44-1.64-3.45-1.42-1.15,2.87-2.87,3.69l1.44-5.33v1l-1.44-.25v-1c3.66,1.39,1.44-4.49,5.74-1.8-2.58-1.69-3.88,1.15-4.31,3.44,1.29.64,2.08-.27,2.87-.9Z"/><path class="cls-2" d="M73.5,59.43c-.43-2.58-5.89.53-8.62,1.31V59.35c.43.91,1.36.86,2.15,1.07l2.87-3.69c1.08,2.9,3.38,1.2,5,1.56Z"/><path class="cls-2" d="M71.39,36.69c-1.65.34-2.94-2.38-4.31-.74V34.56Z"/><path class="cls-2" d="M72.3,14.14c-.07-.78.14-1.65-.72-2.21-2.51-1.33-1.72,1.66-2.87,2.29-1.79,1.43.86-.41,0-1.39l-1.44-.25c1,2.4,4.52-3.05,2.15-5.9Z"/><path class="cls-2" d="M70.81,51.72l-.51-1.39c2.75,1,4,0,3.56-2a1.91,1.91,0,0,0,1,2.78c-3.15-1.36-3.87.62-5.09,1.8l.51,1.39c4.42.32-1.88.75-.51-1.39l.35,1-1.52-.25-.35-1C69.79,53.26,70.25,52.35,70.81,51.72Z"/><path class="cls-2" d="M69.48,15.66l-1.31.82c1.76-.64,1.89.27,2.22.9l-1,1.39c-.94-1.47.44,2.84,2.52,1.48C67.13,21.16,72.45,16.33,69.48,15.66Z"/><path class="cls-2" d="M70.78,23.67l-.71,1c.84-.06,2-.43,1.92.33l-2,2.79L68.34,28l-1,1.39c3-3,6.16-1.56,7.89-4.92a5.89,5.89,0,0,1-2.33,2.21c-.84.07-2,.43-1.92-.33Z"/><path class="cls-2" d="M55,45.94l-1.31.82c1.76-.64,1.89.27,2.22.9l-1,1.39c-.94-1.47.44,2.84,2.52,1.47C52.66,51.44,58,46.6,55,45.94Z"/><path class="cls-2" d="M55.16,72c.48-.75,1.38-1.7.71-2l-1.62.25,1-1.39-2.63,1.64c3.12-1,4,0,2.82,2Z"/><path class="cls-2" d="M56.84,43.74c4.06-1.24.07,2.47.19,3.69-.91,1.25.85-1.37,2.14-5.9A5.88,5.88,0,0,1,56.84,43.74Z"/><path class="cls-2" d="M59.81-1.82c-.75-.2-1.93.65-3,1.22L55.09,4.15,57,3l.62,1.77,3.76-2.21-1.58,2C57.22,5.39,57.42,4,57,3L55.09,4.15c-.26-.43-.18-1.17-1.4-.77,4.53-2.29,2.38-3.9,3.63-5.85Z"/><path class="cls-2" d="M65.23,2.11c-.49.58-1.31,1.09-.9,1.89l1.18.85-1,1L66.7,5.7c-2.4-1-2.81-2.87-1.56-4.51L64,1.26Z"/><path class="cls-2" d="M59.48-.29c-.7.64-.24,1.47-.09,2.24,1.28-1.69,5.54-2,2.9-5.25.93.17,1,1.12,1.27,1.84-2.42,0-2,4.93-5,2.93Z"/><path class="cls-2" d="M62.51,43.24l.73.68-1.37,1.46-.73-.69c.87-1.8,2.57-1.42,4.2-1.54-.09-.78.09-1.7-.77-2.1L66,41c0-1.41-.48-4.3,2-3.6C63.26,37.63,69.07,47.35,62.51,43.24Z"/><path class="cls-2" d="M56.48,58.69c-1,3.22-6-2.22-6,1.22l.14,1.13L52,62.1,51.83,61l-1.36-1.05c-1.12-4.09,2.47,0,3.69-.09l.2,1.62Z"/><path class="cls-2" d="M64.39,54.94c-.9-.3-1.4.5-2,1,2.1.3,4.4,3.9,6,0,.3.9-.5,1.4-1,2-1.2-2.1-5.3.6-5-3Z"/><path class="cls-2" d="M58.29,61,58,59.63l1.39-.26.26,1.39c2.74.06-5.71-.51-3.65,3.56-1.54,1.73,1.79-1.2.3-2.22l-2,1.09C55.59,62.32,56.6,61.19,58.29,61Z"/><path class="cls-2" d="M72.89,63.94c-1.4-.4-2,1.3-3,2,0,2.5.2-1-1-1l-1,1,1-2c-.3.9.5,1.4,1,2l2-3Z"/><polygon class="cls-2" points="62.44 61.8 61.09 59.12 63.33 61.35 63.78 62.24 62.89 62.69 62.44 61.8"/><polygon class="cls-2" points="68.39 50.94 66.51 51.63 70.52 48.04 68.39 50.94"/><path class="cls-2" d="M-4,62.23c2.73.52,4.43-.57,6.57-.87l-3.36.75-1.37-.88C-.84,60.21-4.21,61.61-4,62.23Z"/><path class="cls-2" d="M1.86,73.33c-4.06,1.24-.07-2.47-.19-3.69l1.62-.25-2.82-2C3.72,68.22-1.58,73.42,1.86,73.33Z"/><path class="cls-2" d="M7.39,52.69c1.39,1.14.64,3.3.92,4.91l-.12-2.82-1.41.06C6,56.72,6.63,53.22,7.39,52.69Z"/><path class="cls-2" d="M1.14,43.94c.62-1.15,2.67-2.88,1.73-3.36L1.14,43.94c2.38-1.79-1.6,3.28,4.24-1.88C3.94,43,2.29,44.14,1.14,43.94Z"/><polygon class="cls-2" points="67.89 70.44 66.17 70.32 70.67 71.81 71 71.25 68.22 69.89 67.89 70.44"/><path class="cls-2" d="M48.31,69.43c.22-1.08.28-2.39,1.58-2.74l-.83.55L47.5,64.88l.83-.55,2.34,3.54c-.82-.47-1.47.21-2.16.58Z"/><polygon class="cls-2" points="10.79 67.97 10.06 69.92 13.29 69.47 10.79 67.97"/><path class="cls-2" d="M66.14,27.69l2-3,1,1C67.74,25.29,67.14,27,66.14,27.69Z"/><path class="cls-2" d="M68.14,3.32c0,2.5.2-1-1-1l-1,1,1-2C66.84,2.22,67.64,2.72,68.14,3.32Z"/><path class="cls-2" d="M71,34.45c-1.35-.91-4.39-.29-3.85-3.19.25,1.07.36,2.38,1.67,2.68.95.08,1.25-.81,1.71-1.44l1.67,2.68Z"/><polygon class="cls-2" points="72.53 38.02 67.54 40.25 67.06 39.95 71.41 39.51 72.53 38.02"/><polygon class="cls-2" points="-4.46 40.25 -4.94 39.95 -0.59 39.51 -0.57 38.59 1.61 38.37 0.53 38.02 -4.46 40.25"/><polygon class="cls-2" points="51.38 23.17 53.42 21.69 50.38 22.59 51.38 23.17"/><polygon class="cls-2" points="52.17 53.69 52.2 51.4 50.91 51.6 52.17 53.69"/><path class="cls-2" d="M44.59,4.39l-.7-.7,1-1,.7.7-1,1,2,2c-.5.6-1.3,1.1-1,2h-1c-.2-1.4,2.4-2.9,0-4h-1l2-6C45.29.39,41.89,2.39,44.59,4.39Z"/><path class="cls-2" d="M42.59,17.64l-2,0-.74,1c.1-1.8-2-2.7-3-4l-1,1c-.2-1.4,3.9-2.9,0-4h-1l1-3C36.44,12,37.14,17.29,42.59,17.64Z"/><path class="cls-2" d="M49.14,8.94c-4,.77-5,5.93-8.39,5.76l-1-.2.28-1.39,1,.2.47,1.14c2.91,1.31,2.36-2.41,3.61-3.6l-1.39-.28Z"/><path class="cls-2" d="M41.09,21.64l4.45-.83c-1.2,2.7,2.45,2.63,3.55,3.83l-1-1-1,1c1.5-2.1-6.92-4.21-9.42-4.21l.5-1.75C37.87,19.59,40.59,21,41.09,21.64Z"/><path class="cls-2" d="M25.59,22.39c-2.5-1.1-3.3,2-5,3,.3-.9-.5-1.4-1-2-.9-.3-1.4.5-2,1-.4,1.4,1.3,2,2,3l-3-2c.5-.6,1.3-1.1,1-2,4.3,1.9,5.1-1.6,9-2Z"/><path class="cls-2" d="M39.59,22.39c-1.9.6-3.4,3.2-5,0l-1,1c-.6-.5-1.1-1.3-2-1-.5.6-1.3,1.1-1,2l-1-1C29.89,20.09,36.29,25.69,39.59,22.39Z"/><path class="cls-2" d="M25.59,31.39c.3-.9-.5-1.4-1-2l-4,2,4,4c.5-.6,1.3-1.1,1-2l1,1c-.9-.3-1.4.5-2,1,0,2.6,2.5,1.6,3,4-3.6-1.3-2.5-7.1-7-8,1.2-1.6,5.3-.6,4-4Z"/><path class="cls-2" d="M42.59,33.89c3.8.4.5-5.6,5-4Z"/><path class="cls-2" d="M30.24,40.58l-.74,1.21,2.41,1.48-.74,1.2,1.2.74-1,.23c1,1.3-2.28-4-2.59-6.58C28.72,39.81,29.61,40.11,30.24,40.58Z"/><path class="cls-2" d="M32.59,35.39c1.3-2,3.5-.5,5,0l-1,1a3.17,3.17,0,0,0-5-1v-1Z"/><path class="cls-2" d="M43.53,40.18c-1.2-3-2.11,1.51-5.1.11-1,.73,1.24-.69,6.43-1.9C44.27,38.89,43.39,39.24,43.53,40.18Z"/><path class="cls-2" d="M33.59,42.89l1,1h-2l2-3C34.89,41.79,34.09,42.29,33.59,42.89Z"/><path class="cls-2" d="M30.59,47.39c1.7-1.3-4.2-2.7-5-6l-4,3,3-2-1-1C27.39,41.89,28.69,44.29,30.59,47.39Z"/><path class="cls-2" d="M43.59,44.89c.3-.9-.5-1.4-1-2l1,1,1-2Z"/><path class="cls-2" d="M46.59,47.39c1-.7,1.6-2.4,3-2l-3,2c.4-1.9-3,1.9-1-3C45.59,45.49,45.39,46.79,46.59,47.39Z"/><path class="cls-2" d="M20.59,47.39c0,1.1.2,2.4-1,3l2,2a3.17,3.17,0,0,0,1-5l1,3c-1.6,3.2-3.1.6-5,0-1.2,1.7,5.1-2.9,0-3-2.4,2.1.8.1,0-1C19.19,46.89,19.69,47.69,20.59,47.39Z"/><path class="cls-2" d="M39.34,54.14c-1.6-.7-.7-3.4-3-3l1-1Z"/><path class="cls-2" d="M42.09,52.14c-2,2.5,1.3-.3-1-1,1.4.4,2-1.3,3-2l-2-1h2Z"/><path class="cls-2" d="M27.79,55.09c1.3,1,2.2,3.1,4,3-3,1.8,1.4,3,1,5-.9.3-1.4-.5-2-1,1.3-1.1,0-3.6-1-5l-2-2-2,3,3-4Z"/><path class="cls-2" d="M33.59,56.14c-4.37,5.13,4.47-2.87-1-1.75l5,.75Z"/><path class="cls-2" d="M34.59,58.89c3.3,2.7-2.3,5.3,1,8h-2c.3-2.7,3.7-5.3,1-8h-1l6-3Z"/><path class="cls-2" d="M29.09,59.39c-2.7,2.2-1.2,6.2-5,8-1.4,1.7,2.8-2.2,3-4C27.09,61.79,26.69,59.09,29.09,59.39Z"/><path class="cls-2" d="M46.89,62.14c-1.59-1.1-2.63.93-3.87,1.41-1.12,3.17-.39,4.61,2.53,5.53.91-.25.88-1.2,1.1-1.95-.25-.91-1.2-.88-1.95-1.1.91-.26.88-1.2,1.1-1.95-.63,2.11,1.68,3.57.31,5.82l-4.45-3c1.38-.45.93-2.2,1.37-3.34l-3,.85,6.36-3.09Z"/><path class="cls-2" d="M38.59,47.39c-.6-.5-1.1-1.3-2-1,1.9-1.2-1.9-3.8,0-5C35.29,43,37.89,45.39,38.59,47.39Z"/><path class="cls-2" d="M41.25,23.76c-2.43,3.33,1.47,6.82-1.1,9l-.84.52-.74-1.2.84-.52.74,1.2c3-1,.08-3.37.18-5.09l-1.2.74Z"/><path class="cls-2" d="M27.93,8.33l-.48,1.33,2.66,1-.48,1.33,1.33.48-.9.43c1.27,1.06-3.05-3.43-3.89-5.91C26.29,7.88,27.22,8,27.93,8.33Z"/><polygon class="cls-2" points="33.64 4.95 29.64 1.95 33.64 -0.06 30.64 1.95 33.64 4.95"/><path class="cls-2" d="M47.26,50.27c-.62.72-.07,1.49.17,2.23C48.5,50.68,52.7,49.91,49.7,47c.95.06,1.11,1,1.47,1.68-2.4.31-1.46,5.13-4.67,3.49Z"/><path class="cls-2" d="M47.89,54.44l1-1,1,1-1,1c1.5,2.3-2.8-5-5-1-2.3-.3,2,.8,2-1l-2-1C45.29,52.94,46.79,53.14,47.89,54.44Z"/><polygon class="cls-2" points="44.14 27.69 43.14 28.69 44.14 25.7 45.14 25.7 45.14 27.69 44.14 27.69"/><path class="cls-2" d="M20.89,7.69c.1,1.8-2,2.7-3,4l2-2-1-1C17,9.39,20,7.49,20.89,7.69Z"/><polygon class="cls-2" points="21.89 16.7 18.89 16.7 21.89 15.7 22.89 15.7 22.89 16.7 21.89 16.7"/><path class="cls-2" d="M29.14,19.19c.5-.6,1.3-1.1,1-2-1.1-2.4-2.6.2-4,0-2.5,0,1,.2,1-1l-1-1c-.9,2.3,5.9.4,6-3Z"/><path class="cls-2" d="M37.89,27.69c-.9-2.7-4-1.4-6,0,.6,1.2,1.9,1,3,1-.9-.3-1.4.5-2,1h1v1h-1c2.6,2.5-1.3-.8,0-2-1.8-3-3,1.4-5,1l5-3-.7.7-1-1,.7-.7C33.89,28.79,36.29,23.29,37.89,27.69Z"/><path class="cls-2" d="M34.31,9.3c-.43-.91-1.37-.86-2.16-1.07V9.63c-1.44-1.22-2.3-3.74-4.31-3.52.86-.27.65-1.21.72-2C27.78,5.74,30,6.75,30.72,8,31.94,8.41,33.6,7.92,34.31,9.3Z"/><path class="cls-2" d="M46.22,33.27c2.24,1.21,2.39,2.81,3,4.42l1.53.25c.36.78.46,1.65,1.52,2.21-3.76-1.06-1.33,2.87-2,4.26.81,1.84-.3-2.41-2.54-3,.76.91,1.68.86,2.54,1.06l.51-4.51-1.53-.25-1-2.79-3.05-.49Z"/><path class="cls-2" d="M27,66.37a5.39,5.39,0,0,1,2.93-1.07l-1.62.25,2.33-2.21Z"/><path class="cls-2" d="M22.79,55.62c-.86.27-.65,1.21-.72,2"/><path class="cls-2" d="M31.69,70c.84-.07,2-.43,1.92.33,1-2.07,5.56-2,6.57-4.1C38.47,68.31,34.53,68.78,31.69,70Z"/><path class="cls-2" d="M42.14,59.94c-.84.07-2,.43-1.92-.33.43-1.18,2.2-2.13,3.64-3l-.3-.57-1,1.39.71-1L40,56.92l-.71,1c.84-.06,2-.43,1.92.33l-2,2.79-1.62.25-1,1.39c3-3,6.16-1.56,7.89-4.92A5.89,5.89,0,0,1,42.14,59.94Z"/><path class="cls-2" d="M20.82-4.41C19.37-2.6,19.59-.81,17.72,1l-1.4.85,1-.59.4-1.67-1,.59c.06,1.25-1.21,2.81-2.2,4.2l7.3-8Z"/><path class="cls-2" d="M19.59,44.23l-1.7-.29L16,41.27,14.32,41l-.94-1.34-.38.52c-1.71-1.59,5.3,4.26,8.84,6.22A5.38,5.38,0,0,1,19.59,44.23Z"/><path class="cls-2" d="M22.79,55.62c-.79-.07-1.72-.43-2.15.33.5-2.07-4.09-2-3.59-4.1C17.26,53.9,20.85,54.38,22.79,55.62Z"/><path class="cls-2" d="M25.31,45.27c1.79,1.21,1.36,2.81,1.44,4.42l1.44.25c.07.78-.14,1.65.72,2.21-3.37-1.06-2.37,2.87-3.59,4.26.14,1.84.57-2.41-1.44-3,.43.91,1.36.86,2.15,1.06l2.15-4.51-1.44-.25V46.91l-2.87-.49Z"/><path class="cls-2" d="M36.32,47.37c-2.59-1.7-3.88,1.15-4.31,3.44,1.29.64,2.08-.27,2.87-.9-.86.27-.65,1.21-.72,2l.72-.57.72.82-.72.57c3.66.56-1.51.09-1.44-1.64-3.45-1.42-1.15,2.87-2.87,3.69L32,49.42v1l-1.44-.25v-1C34.24,50.56,32,44.68,36.32,47.37Z"/><path class="cls-2" d="M23.14,59.94l1,1h-2l2-3C24.44,58.84,23.64,59.34,23.14,59.94Z"/><path class="cls-2" d="M15.56,67.66l3.27-3.34c.75,3,3.22,1.57,4.82,2.11l-1.4-.4-.16,1.38c-.14-2.61-5.91-.13-8.71.34l.16-1.38C13.87,67.31,14.8,67.36,15.56,67.66Z"/><path class="cls-2" d="M23.13,64c.35-3.53-.19,2.2,2.21-.32l-3,.88Z"/><path class="cls-2" d="M18.72,38.46c1.13.41,2.53.73,2.71,2l2.75-.95c-.48-2.23-2.56-3.19-4.76-2.72l3.42.28c2.71,2.56-.49,2.85-1.78,4.24,1.31,1.65-1.15-5.41-3.07-1.12,1.3,2.82.39-.64-1-.37C17.71,39.46,18.71,39.33,18.72,38.46Z"/><path class="cls-2" d="M14.54,21.16l2.87-3.69c1.08,2.9,3.38,1.2,5,1.56L21,18.79v1.39c-.43-2.58-5.89.53-8.62,1.31V20.1C12.82,21,13.75,21,14.54,21.16Z"/><path class="cls-2" d="M25.35,19.11l.78,1.33,2.2-1.38.78,1.33,1.1-.69-.16,1c1.52-.23-4.34-.09-6.74-1.22C24.11,20.07,24.7,19.42,25.35,19.11Z"/><polygon class="cls-2" points="27.28 24.85 27.87 23.59 27.89 26.94 27 27.16 26.39 25.07 27.28 24.85"/><path class="cls-2" d="M46.67,38.62c-.07-.75.14-1.7-.72-2l-1.44.25V35.51l-1.44,1.64c2.37-1,4,0,4.31,2l.72-.82Z"/><path class="cls-2" d="M37.55,32.77c-.43-.91-1.37-.86-2.15-1.06l1.44.25-.72-2.21Z"/><path class="cls-2" d="M39,37.58V36.19l1.44.25v1.39c2.73,1-5.6-2.49-4.31,2-1.87,1.07,2-.49.72-2l-2.15.33C36.07,37.85,37.3,37.15,39,37.58Z"/><path class="cls-2" d="M45.39,19.44c-1.2-.6-1-1.9-1-3,1.4.4,2-1.3,3-2l-1-2C49.89,15.14,43.09,16,45.39,19.44Z"/><path class="cls-2" d="M24.22,6.71c-.73-.19-1.7-.12-1.83-1l.46-1.38L21.47,4.1l1.84-1.17c-1.38,2.18-.61,4,1.37,4.57l-.92.58Z"/><path class="cls-2" d="M31.85,6.2c-.49.58-1.31,1.09-.9,1.89l1.18.85-1,1,2.17-.13c-2.4-1-2.81-2.87-1.56-4.51l-1.09.06Z"/><path class="cls-2" d="M52.54,13.33l.72.82c-1.29-.64-2.08.27-2.87.9v1.39c2-1.47-2.51,2.84-3.59,1.47C50.89,18.83,49.1,14,52.54,13.33Z"/><path class="cls-2" d="M42,24.56a2.89,2.89,0,0,1,2.06-1.23l.72.82c-1.29-.64-2.08.27-2.87.9Z"/><path class="cls-2" d="M25.64,13.19c-.2-1.15-1.62-2.88-.5-3.36l.5,3.36c-1.73-1.79.4,3.28-3.56-1.88C23.2,12.21,24.42,13.39,25.64,13.19Z"/><path class="cls-2" d="M20.59,13.76c-.2-.75-.76-1.7,0-2,.2.75.76,1.7,0,2L16,13l1,2.79L15.51,13.6C17.23,13.22,18,12.5,20.59,13.76Z"/><path class="cls-2" d="M35.16,20.65c2.34-1.85-5-5.29-1.24-7.22Z"/><path class="cls-2" d="M34.8,1.42c1.12.9,2.54,1.85,2.54,3l3.05.49c-.15-2.19-2.18-4-4.57-4.67l3.56,1.88c2.44,3.54-1,2.27-2.55,2.87,1.12,2.08-.35-5.3-3-2.46.91,3.1.51-.38-1-.82C33.58,1.82,34.64,2.18,34.8,1.42Z"/><path class="cls-2" d="M46.19,59.12c2.15,4.12,7.68,4.75,8.57,8l.1.91-1.6-.56-.1-.91,1.6.56c.49-2.58-3.39-2.81-5.09-4.28l.14,1.3Z"/><path class="cls-2" d="M40.39,47.94c-.6,1,2.62-4.67.26-6.06C43,43.27,40.21,46,40.39,47.94Z"/><path class="cls-2" d="M38.45,9.67c.81.07,1.88.43,2-.33,0-1.18-1.42-2.13-2.54-3l.51-.57L39,7.13l-.35-1,3,.49.36,1c-.81-.07-1.88-.43-2,.33l1,2.79,1.53.25L43,12.37c-1.88-3-5.59-1.56-6.1-4.91C37.28,8.24,37.38,9.11,38.45,9.67Z"/><path class="cls-2" d="M25.21,3.26,25-.43c-3.19,2.9-4.25,1.2-6.16,1.55L20.48.88l-1,1.39c2.31-2.58,5.5.53,7.66,1.31l1-1.39A5.39,5.39,0,0,1,25.21,3.26Z"/><polygon class="cls-2" points="18.79 4.52 19.69 6.24 20.1 3.7 19.8 3.13 18.48 3.94 18.79 4.52"/><path class="cls-2" d="M14.52,76.41l7.3-8-1-.83c-1.45,1.81-1.23,3.6-3.1,5.45Z"/><polygon class="cls-2" points="42.99 61.41 43.71 59.44 40.48 59.93 42.99 61.41"/><polygon class="cls-2" points="27.89 70.19 28.6 68.23 25.37 68.72 27.89 70.19"/><path class="cls-2" d="M45.69,58.31c.84-.07,2-.43,1.92.33,1-2.07,5.56-2,6.57-4.1C52.46,56.6,48.53,57.07,45.69,58.31Z"/><path class="cls-2" d="M28,33.21l.05,1.63,3.79,3.51L31.91,40l.6-.23L31.19,37c-.35.63-1.18-.38-1.87-.94a5.39,5.39,0,0,1-.71-3c-.69-.56-1.52-1.57-1.87-.94Z"/><polygon class="cls-2" points="31.14 32.03 31.14 33.44 29.72 30.61 30.43 29.91 31.84 31.32 31.14 32.03"/><polygon class="cls-2" points="22 27.43 21.25 28.98 24.32 25.37 23.92 24.85 21.61 26.92 22 27.43"/><path class="cls-2" d="M42.76-1.43l-2,3c.4,2.1-.6-3.1-3-4l3,3Z"/><path class="cls-2" d="M29.09-2c4.06-1.24.07,2.47.19,3.69-.91,1.25.85-1.37,2.14-5.9A5.88,5.88,0,0,1,29.09-2Z"/><polygon class="cls-2" points="38.44 65.25 37.66 65.73 36.3 64.01 36.58 65.11 38.44 65.25"/><polygon class="cls-2" points="41.13 69.47 41.42 68.69 40.13 68.88 41.13 69.47"/><path class="cls-2" d="M32.25,18.13a2.89,2.89,0,0,1,1,2.16l-.88.64c.75-1.23-.08-2.1-.64-2.94Z"/><path class="cls-2" d="M34.42,6.69c-2.7-2.3,1.7,1.4,1-2l-1,3Z"/><polygon class="cls-2" points="43.23 18.99 43.72 19.37 43.18 19.99 42.18 19.94 42.23 18.95 43.23 18.99"/><polygon class="cls-2" points="39.23 43.24 39.72 43.62 39.18 44.24 38.18 44.19 38.23 43.19 39.23 43.24"/><polygon class="cls-2" points="39.17 49.68 39.09 49.06 39.91 49.01 40.58 49.74 39.85 50.42 39.17 49.68"/><path class="cls-2" d="M5.49,31.1c-3.09,1.77-5.74.55-9.33-.9-.29,2,5-.2,7.9,2Z"/><path class="cls-2" d="M-.24,46.83c3.66.56-1.51.09-1.44-1.64-3.45-1.42-1.15,2.87-2.87,3.69l1.44-5.33v1l-1.44-.25v-1c3.66,1.39,1.44-4.49,5.74-1.8-2.58-1.69-3.88,1.15-4.31,3.44,1.29.64,2.08-.27,2.87-.9Z"/><path class="cls-2" d="M1.5,59.43c-.43-2.58-5.89.53-8.62,1.31V59.35c.43.91,1.36.86,2.15,1.07l2.87-3.69c1.08,2.9,3.38,1.2,5,1.56Z"/><path class="cls-2" d="M.3,14.14c-.07-.78.14-1.65-.72-2.21-2.51-1.33-1.72,1.66-2.87,2.29-1.79,1.43.86-.41,0-1.39l-1.44-.25c1,2.4,4.52-3.05,2.15-5.9Z"/><path class="cls-2" d="M-1.19,51.72l-.51-1.39c2.75,1,4,0,3.56-2a1.91,1.91,0,0,0,1,2.78c-3.15-1.36-3.87.62-5.09,1.8l.51,1.39c4.42.32-1.88.75-.51-1.39l.35,1-1.52-.25-.35-1C-2.2,53.26-1.75,52.35-1.19,51.72Z"/><path class="cls-2" d="M-1.22,23.67l-.71,1c.84-.06,2-.43,1.92.33l-2,2.79L-3.66,28l-1,1.39c3-3,6.16-1.56,7.89-4.92A5.89,5.89,0,0,1,.89,26.69c-.84.07-2,.43-1.92-.33Z"/><path class="cls-2" d="M.89,63.94c-1.4-.4-2,1.3-3,2,0,2.5.2-1-1-1l-1,1,1-2c-.3.9.5,1.4,1,2l2-3Z"/><path class="cls-2" d="M-1,34.45c-1.35-.91-4.39-.29-3.85-3.19.25,1.07.36,2.38,1.67,2.68C-2.27,34-2,33.13-1.5,32.5L.17,35.19Z"/><polygon class="cls-2" points="0.53 38.02 -4.46 40.25 -4.94 39.95 -0.59 39.51 0.53 38.02"/><path class="cls-2" d="M62.14-4.55l-3,5c-3.3,1.7,6.8-7.2-1-4l-.7.7-1-1,.7-.7c1,2,2.8-.3,4-1-2.4-1.2-2.4-3.8,0-5C58.14-9.65,59.64-6.15,62.14-4.55Z"/><path class="cls-2" d="M55.16,0c.48-.75,1.38-1.7.71-2l-1.62.25,1-1.39L52.65-1.43c3.12-1,4,0,2.82,2Z"/><path class="cls-2" d="M1.86,1.34c-4.06,1.24-.07-2.47-.19-3.69L3.29-2.6l-2.82-2C3.72-3.78-1.58,1.43,1.86,1.34Z"/><path class="cls-2" d="M14.52,4.41l7.3-8-1-.83C19.37-2.6,19.59-.81,17.72,1Z"/></pattern></defs><title>bg</title><g class="cls-3"><rect class="cls-4" x="-3" y="-3" width="439" height="306"/></g><g class="cls-5"><rect class="cls-4" width="434" height="300"/></g></svg>