<svg id="Layer_1" data-name="Layer 1" xmlns="http://www.w3.org/2000/svg" viewBox="0 0 53.75 54.05"><defs><style>.cls-1{fill:#ef3e42;}.cls-2{fill:none;stroke:#fff;stroke-linecap:round;stroke-width:0.75px;}.cls-3{fill:#fff;}</style></defs><title>dtmg</title><path class="cls-1" d="M27,29.7a9.83,9.83,0,0,1,3.52-2.1c1.61-.47,5.77-1.19,6.74-5.3.76-3.23-.68-6.85-.84-8.47a30.89,30.89,0,0,1,.38-5.19.71.71,0,0,0-1-.75,12.84,12.84,0,0,1-4,.76A7,7,0,0,1,27,6.46a7,7,0,0,1-4.81,2.19,12.85,12.85,0,0,1-4-.76.71.71,0,0,0-1,.75,30.94,30.94,0,0,1,.38,5.19c-.17,1.62-1.61,5.25-.85,8.47,1,4.11,5.14,4.83,6.74,5.3A9.82,9.82,0,0,1,27,29.7"/><path class="cls-2" d="M27,28.86a9.43,9.43,0,0,1,3.7-2c3.19-.81,5.09-2.2,5.79-4.29,1-3-.39-6.34-.67-8.56a23.54,23.54,0,0,1,.26-4.82c.14-.73.05-.82-.57-.61a13.26,13.26,0,0,1-4,.59A8.58,8.58,0,0,1,27,7.39a8.58,8.58,0,0,1-4.48,1.83,13.26,13.26,0,0,1-4-.59c-.62-.22-.71-.12-.57.61A23.55,23.55,0,0,1,18.17,14c-.28,2.22-1.68,5.57-.67,8.56.7,2.09,2.6,3.48,5.79,4.29A9.43,9.43,0,0,1,27,28.86Z"/><path class="cls-3" d="M27.55,9.53a3.94,3.94,0,0,1,0,.69.56.56,0,0,0-.45-.36.69.69,0,0,0-.57.37,3.28,3.28,0,0,0,0,1c.16,0,.27-.18.42-.25.35-.23.95,0,1.1-.53l0,0a.63.63,0,0,1-.08.43c-.35.57-1.2.1-1.48.71a5.35,5.35,0,0,0,.06,1.26c.07.08.18,0,.26,0a1.64,1.64,0,0,0,1-1.18h0c0,.31,0,.64-.09.93a20.87,20.87,0,0,1-1.9,1c.31-.55.1-1.28.15-1.95,0-.38,0-.71,0-1.1,0-.07-.09-.14-.15-.19a1.7,1.7,0,0,0-.21,0,.57.57,0,0,1,.25-.19c.48-.29,1-.53,1.46-.79.12,0,.06.12.11.18"/><path class="cls-3" d="M34.61,10.74a3.64,3.64,0,0,1,0,1.41,7.4,7.4,0,0,0,.14,3.11c0,.08-.08.08-.12.06a1.22,1.22,0,0,1-.45-.65c-.24-.47-.4-1-.68-1.43l0,.06,0,2.1c0,.07.11.12.16.15a2.14,2.14,0,0,1-.6.37c0-.1.07-.19.07-.31,0-1.1,0-2.24,0-3.3,0-.17-.23-.18-.36-.23a2.89,2.89,0,0,1,.59-.37c.09,0,.16,0,.18.12.21.46.39.95.63,1.39l0,0c0-.71.13-1.41.07-2.14,0-.15-.3-.2-.21-.36s.21-.2.36-.15.19.13.26.21"/><path class="cls-3" d="M25.24,10.6c0,.09-.08.21-.11.31l0,2.73c0,.08,0,.16.08.22l.14.08a3.54,3.54,0,0,1-.72.41l0-.08,0-.2,0-1.44c-.1-.1-.21,0-.3.07a3.19,3.19,0,0,0-.55.36,7.42,7.42,0,0,0,0,1.4.27.27,0,0,0,.21.16h.07a4,4,0,0,1-.9.51,1.24,1.24,0,0,0,.13-.44L23.31,12c0-.12-.15-.18-.21-.24a3.36,3.36,0,0,1,.81-.44c-.21.34-.06.85-.08,1.27l0,.06a4.39,4.39,0,0,0,.78-.4l0-.08v-.95a.23.23,0,0,0-.17-.16h-.07c0-.09.1-.08.15-.15a3.67,3.67,0,0,1,.64-.31"/><path class="cls-3" d="M22.64,11.66a3.7,3.7,0,0,0,.23,1.24c-.33-.17-.27-.55-.59-.75-.1,0-.16,0-.2.11,0,1.1,0,2.1.07,3.18a.22.22,0,0,0,.17.12h.12a7,7,0,0,1-1,.55c.32-.33.16-.85.19-1.27l0-2.21c0-.06,0-.13-.06-.18-.28.08-.29.41-.41.63a1.41,1.41,0,0,1-.36.89h0c.25-.44,0-1,.2-1.5.56-.3,1.11-.65,1.7-.92l0,.1"/><path class="cls-3" d="M32.51,12.74a3.87,3.87,0,0,1-.07,3.09,1,1,0,0,1-.64.56.74.74,0,0,1-.61-.21,3.41,3.41,0,0,1-.39-2.42c.14-.55.34-1.31,1.06-1.42a.72.72,0,0,1,.65.39m-.71,0a.65.65,0,0,0-.39.59,5.39,5.39,0,0,0,0,2.43c.07.13.15.37.36.35s.28-.35.36-.55a6.53,6.53,0,0,0,0-2.54C32.09,12.84,32,12.69,31.8,12.7Z"/><path class="cls-3" d="M30.59,13a3.84,3.84,0,0,0-.14.43v1.61c0,.56,0,1.15.06,1.68a.37.37,0,0,0,.17.15l0,0a4.59,4.59,0,0,1-.79.43,1.33,1.33,0,0,0,.15-.8l0-2.18,0-.73a.55.55,0,0,0-.17-.17c.21-.17.46-.25.67-.4,0,0,.09,0,.14,0"/><path class="cls-3" d="M29.52,13.73c.08.39,0,.84.08,1.22-.2-.22-.1-.58-.41-.73-.11,0-.18.06-.23.12l0,.1v2l0,1.08a.41.41,0,0,0,.21.21,2,2,0,0,1-.75.41l.07-.34V16.07l0-1.44a.12.12,0,0,0-.2,0c-.27.26-.21.66-.39.95h0a7.87,7.87,0,0,0,0-1l0-.08c.52-.26,1-.58,1.54-.86l.1.07"/><path class="cls-3" d="M26.38,15.42a2.62,2.62,0,0,0-.19.72l-.13.66-.35,1.87c-.18.47-.09,1.08-.46,1.45a3.28,3.28,0,0,0-.17-.88l-.53-1.93c-.06-.24-.13-.55-.43-.62v0a4,4,0,0,1,.89-.47c-.14.14-.09.37-.08.55.1.54.26,1.05.39,1.58l.06,0c.14-.46.18-.95.27-1.42,0-.31.18-.67,0-1a.16.16,0,0,0-.14-.08,3.82,3.82,0,0,1,.76-.45h.07"/><path class="cls-3" d="M34.23,16.85a.62.62,0,0,1,0,.55c-.25.77-.59,1.51-.88,2.27a10.15,10.15,0,0,0,0,1.22c0,.08.12.13.16.19a9.53,9.53,0,0,1-.85.5,1.92,1.92,0,0,0,.17-.49,12.81,12.81,0,0,0,0-1.37c-.23-.49-.48-1-.75-1.44l-.19-.13a4.21,4.21,0,0,1,.83-.46c0,.19-.15.44,0,.64s.24.56.42.83c.09,0,.09-.08.14-.12a8.62,8.62,0,0,0,.59-1.75.52.52,0,0,0-.31-.51l0-.1a.56.56,0,0,1,.55,0c.09,0,.11.12.16.18"/><path class="cls-3" d="M23.61,17.76c0,.86,0,1.72,0,2.59,0,.07,0,.15.12.18s.17,0,.24-.08c.34-.34.17-.9.56-1.21h.08a2.1,2.1,0,0,0-.12.93c0,.09,0,.2,0,.29-.42.28-.88.51-1.31.75l0,0,0-.43,0-2.2,0-.93a.37.37,0,0,0-.34-.23,6,6,0,0,1,1-.54,1.77,1.77,0,0,0-.15.88"/><path class="cls-3" d="M31.42,18.41c0,.15-.08.29-.08.45v1.27l0,1.89c0,.08.11.14.18.2a2.53,2.53,0,0,1-.68.37,1.86,1.86,0,0,0,0-.62l0-1.72h0c-.18.46-.3.93-.48,1.39-.1,0-.16-.14-.2-.23s-.24-.45-.41-.67l-.08,0c0,.75,0,1.45,0,2.2,0,.07.14.11.19.17a3.27,3.27,0,0,1-.73.4A1.73,1.73,0,0,0,29.3,23l0-1.6,0-1.35c0-.13-.19-.2-.3-.24a1.26,1.26,0,0,1,.59-.32l.67,1.11c.08,0,.08-.08.12-.1.17-.6.35-1.18.54-1.79a1.83,1.83,0,0,1,.56-.33"/><path class="cls-3" d="M20.5,18.84a1.53,1.53,0,0,0-.09,1.31c-.17,0-.25-.16-.36-.24s-.18,0-.21,0a.61.61,0,0,0,.12-.31.45.45,0,0,0-.23-.39.73.73,0,0,0-.72.06.53.53,0,0,0-.2.58c.31.68,1.2.87,1.56,1.56a1.63,1.63,0,0,1-.19,1.58,1.32,1.32,0,0,1-1.25.45.94.94,0,0,1-.69-.6.67.67,0,0,1,.25-.74.57.57,0,0,1,.58,0,.3.3,0,0,1,.13.22c0,.08-.13,0-.2,0a.41.41,0,0,0-.21.21c0,.12,0,.22.06.3a.53.53,0,0,0,.55.19.86.86,0,0,0,.61-.66c.14-1.13-1.4-1.31-1.66-2.27a1,1,0,0,1,.43-1.13,1.38,1.38,0,0,1,1.26,0,.58.58,0,0,1,.47-.15v.1"/><path class="cls-3" d="M22,17.62a.47.47,0,0,0-.1.38c.31,1,.57,2,.87,3.06,0,.11.17.19.16.3a4.27,4.27,0,0,1-.8.41,1.07,1.07,0,0,0,0-1c-.06-.19-.12-.14-.22-.11s-.29.15-.36.18-.13.21-.15.3-.26.74.07.87c0,0,.07,0,.12,0a4.76,4.76,0,0,1-1,.58c0-.14.13-.25.18-.39.29-1.34.5-2.72.77-4.07.11-.22.19-.52.46-.58m-.19,1.47-.07,0a8.12,8.12,0,0,0-.2,1.39,1.08,1.08,0,0,0,.47-.27Z"/><path class="cls-3" d="M28.78,21a1.33,1.33,0,0,1-.19,1.32c-.11.2-.46.26-.4.54A2.39,2.39,0,0,0,29,24.37a.83.83,0,0,0,.46,0c0,.13-.19.21-.31.23-.68,0-1-.68-1.3-1.16-.09-.23-.19-.47-.25-.7l0,0,0,.06c0,.48,0,1,0,1.46,0,.09.17.08.17.16a2.77,2.77,0,0,1-.7.38,8.69,8.69,0,0,0,0-1.33c0-.73,0-1.52,0-2.27a.24.24,0,0,0-.18-.14H26.7a1.79,1.79,0,0,1,.54-.37,1.29,1.29,0,0,1,1.2-.08,1.23,1.23,0,0,1,.34.37m-1-.13a.29.29,0,0,0-.26.17,10.46,10.46,0,0,0,0,1.47c0,.07.1.08.16.08a.62.62,0,0,0,.45-.28,1.53,1.53,0,0,0,0-1.33A.69.69,0,0,0,27.81,20.83Z"/><path class="cls-3" d="M26.13,23.07l.41,1.74c0,.08.12.15.17.19a2.22,2.22,0,0,1-.65.35,1.64,1.64,0,0,0-.14-1c0-.09-.16,0-.2,0a3.06,3.06,0,0,0-.73.4,5.19,5.19,0,0,0-.13,1,.21.21,0,0,0,.21.11v0a5.56,5.56,0,0,1-.93.51c0-.11.14-.19.19-.3a10.59,10.59,0,0,0,.43-1.84c.16-.87.36-1.73.51-2.6a1.86,1.86,0,0,1,.42-.71,20.72,20.72,0,0,0,.46,2.07m-.69-.51-.07.19c-.08.51-.21,1-.24,1.5a1.72,1.72,0,0,0,.64-.29.27.27,0,0,0,0-.18A12.48,12.48,0,0,0,25.44,22.56Z"/><path class="cls-3" d="M27.63,16.53c.15.54.24,1.1.41,1.63,0,.08.15.11.15.18a2.87,2.87,0,0,1-.72.4,1.8,1.8,0,0,0,0-.57l-.09-.37c0-.07-.12,0-.17,0s-.42.17-.53.37-.16.51-.1.8c.06.11.19.09.3.11a8.41,8.41,0,0,1-1,.55h0a15.35,15.35,0,0,0,.65-2.75,9,9,0,0,1,.59-2.23l0,0a8.67,8.67,0,0,0,.38,1.93m-.47-.34-.07,0a8.08,8.08,0,0,0-.2,1.39,1.08,1.08,0,0,0,.47-.27Z"/><path class="cls-3" d="M47.65,38.9a15,15,0,0,1,0,1.6c0,.22-.05.36-.2.39a2.16,2.16,0,0,1-.23,0,.06.06,0,0,0-.06.06s0,.06.12.06l.44,0H48l.63,0c.31,0,.75,0,1.33,0,.29,0,.37,0,.42-.19a6.15,6.15,0,0,0,.1-.71c0-.05,0-.11-.05-.11s-.06,0-.08.11a.56.56,0,0,1-.35.51,2.54,2.54,0,0,1-.76.08c-.75,0-.89-.1-.91-.59,0-.15,0-1,0-1.26v-.62a0,0,0,0,1,.05-.05c.13,0,.95,0,1.15,0s.36.12.39.23a.66.66,0,0,1,0,.24s0,.07.05.07.07-.08.07-.14,0-.33,0-.48a3.94,3.94,0,0,1,.06-.41s0-.06,0-.06-.06,0-.11.1-.19.09-.37.1-1.18,0-1.27,0,0,0,0-.08v-2c0-.05,0-.08,0-.08s1,0,1.1,0c.42.05.49.1.55.23a.8.8,0,0,1,0,.26c0,.06,0,.1.06.1l.07-.08c0-.09,0-.42,0-.49s.06-.29.06-.35l0-.07-.1,0-.35,0H48l-.88,0c-.09,0-.12,0-.12.06l.06.06.26,0c.25,0,.29.16.31.41s0,.44,0,1.59Zm-2.17-1.3c0-1.14,0-1.35,0-1.59s.06-.36.26-.41l.19,0,.07-.06s0-.06-.13-.06l-.75,0-.87,0c-.09,0-.12,0-.12.06l.06.06.26,0c.25,0,.29.16.3.41s0,.46,0,1.6v.16s0,0,0,0H41.57s0,0,0,0v-.16c0-1.14,0-1.37,0-1.6s.06-.36.27-.41l.19,0,.06-.06s0-.06-.12-.06l-.75,0-.88,0c-.09,0-.12,0-.12.06l.06.06.26,0c.25,0,.29.16.31.41s0,.44,0,1.59v1.3a15.12,15.12,0,0,1,0,1.6c0,.22-.05.36-.2.39a1.09,1.09,0,0,1-.23,0,.06.06,0,0,0-.06.06s0,.06.12.06l.76,0s.52,0,.94,0c.09,0,.12,0,.12-.06a.06.06,0,0,0-.06-.06l-.35,0c-.23,0-.25-.17-.28-.39s0-.87,0-1.58v-.74l0,0h3.18l0,0v.74c0,.71,0,1.27,0,1.57s-.05.36-.21.4a1,1,0,0,1-.23,0,.06.06,0,0,0-.06.06s0,.06.12.06l.75,0s.53,0,.94,0c.09,0,.13,0,.13-.06a.06.06,0,0,0-.07-.06l-.34,0c-.23,0-.25-.17-.28-.39s0-.88,0-1.6ZM37.9,35.8l1,0c.73,0,.89.18.92.41v.08c0,.1,0,.13.06.13s.07,0,.07-.1,0-.62,0-.84c0,0,0-.09,0-.09l-.22,0a3.72,3.72,0,0,1-.55,0H36.26c-.09,0-.38,0-.6,0a2.7,2.7,0,0,1-.34-.09s-.06.1-.08.14-.16.72-.16.8a.06.06,0,0,0,.05.06s.06,0,.08-.07a1.24,1.24,0,0,1,.12-.23c.11-.17.29-.23.77-.23l1.1,0V38.9c0,.71,0,1.29,0,1.6s-.07.36-.23.4a1,1,0,0,1-.23,0s-.06,0-.06.05,0,.06.12.06l.79,0s.53,0,.95,0c.09,0,.12,0,.12-.06a.05.05,0,0,0-.06-.06l-.35,0c-.23,0-.27-.17-.29-.39s0-.88,0-1.6Zm-6.26,4.63c0,.14-.06.17-.16.23a1.92,1.92,0,0,1-.82.14,2.72,2.72,0,0,1-2-.77,2.93,2.93,0,0,1-.81-2,2.29,2.29,0,0,1,.75-1.86,2.42,2.42,0,0,1,1.59-.48,2.18,2.18,0,0,1,1.76.57,1.09,1.09,0,0,1,.17.49c0,.07,0,.11.05.11s.09,0,.09-.16c0-.74,0-.94,0-1s0-.07-.1-.07a3.33,3.33,0,0,1-.62-.08,6.34,6.34,0,0,0-1.17-.12,3.83,3.83,0,0,0-2,.47,2.76,2.76,0,0,0-1.27,2.42,2.82,2.82,0,0,0,.91,2.1,4.3,4.3,0,0,0,4.13.46c.1-.05.1-.06.1-.4v-.82c0-.31,0-.53,0-.76s.08-.37.29-.41l.19,0,.06-.06c0-.05,0-.06-.12-.06l-.75,0-.9,0c-.09,0-.12,0-.12.06l.06.06.26,0c.31.06.33.15.33.75ZM21.36,36.55c.23.26,1.09,1.16,2,2.09s1.91,1.92,2,2c.42.39.5.45.58.45s.06,0,.06-.53l0-4.32c0-.44,0-.59.27-.64l.18,0a.09.09,0,0,0,.09-.07s-.06-.05-.14-.05l-.65,0-.8,0c-.09,0-.15,0-.15.05s0,.07.06.07a2.45,2.45,0,0,1,.37,0c.23,0,.28.21.29.68L25.58,40c-.23-.24-1-1.12-1.8-1.9-1.18-1.21-2.29-2.39-2.41-2.51s-.21-.23-.29-.23-.1.08-.1.37V40c0,.67,0,.87-.22.92a1.21,1.21,0,0,1-.31,0l-.06.06c0,.05,0,.06.12.06.35,0,.67,0,.74,0s.37,0,.81,0c.09,0,.14,0,.14-.06l-.06-.06a1.82,1.82,0,0,1-.38,0c-.21-.05-.28-.23-.29-.84Zm-2.39,1c0-1.14,0-1.35,0-1.59s.06-.36.27-.41l.19,0,.06-.06s0-.06-.12-.06l-.76,0-.77,0c-.09,0-.12,0-.12.06l.06.06.23,0c.16,0,.23.15.24.4s0,.44,0,1.59v1.3c0,.71,0,1.29,0,1.6s-.05.36-.2.39a1.1,1.1,0,0,1-.23,0,.06.06,0,0,0-.06.06s0,.06.12.06l.75,0s.53,0,1,0c.09,0,.12,0,.12-.06a.06.06,0,0,0-.06-.06l-.35,0c-.23,0-.25-.17-.28-.39s0-.88,0-1.6Zm-7.2.44A2.12,2.12,0,0,1,14,35.64c1.2,0,2.28.93,2.28,2.7,0,2.13-1.38,2.5-2.06,2.5A2.49,2.49,0,0,1,11.77,38Zm-.79.2a2.83,2.83,0,0,0,3,2.9,3,3,0,0,0,3.06-3,2.76,2.76,0,0,0-3-2.77A2.92,2.92,0,0,0,11,38.24ZM5,36.86c0-.67,0-1.55,0-1.85a.16.16,0,0,1,.1-.17,2.32,2.32,0,0,1,.56-.06,3.56,3.56,0,0,1,2.83,1,3.1,3.1,0,0,1,.83,2.18A3,3,0,0,1,8.65,40a2.91,2.91,0,0,1-2.06.81c-1,0-1.36-.18-1.47-.35a1.89,1.89,0,0,1-.1-.66c0-.16,0-1,0-1.88Zm-.73,1.66c0,.83,0,1.52,0,1.88s-.08.44-.25.48a1.34,1.34,0,0,1-.26,0c-.05,0-.07,0-.07.05s0,.07.14.07l.5,0h.35l.72.05c.37,0,.83.05,1.2.05a3.44,3.44,0,0,0,2.63-1,3.54,3.54,0,0,0,.94-2.44,3.1,3.1,0,0,0-.84-2.2c-1-1.07-2.62-1-3.48-1-.52,0-1.07,0-1.17,0s-.59,0-1,0c-.1,0-.14,0-.14.07l.07.05a1.63,1.63,0,0,1,.29,0c.29.06.36.2.37.49s0,.52,0,1.87Z"/><path class="cls-3" d="M48.27,44a.13.13,0,0,1,.1-.15,2,2,0,0,1,.46-.05,3.15,3.15,0,0,1,2.47.82A2.55,2.55,0,0,1,52,46.52a2.48,2.48,0,0,1-.6,1.75,2.56,2.56,0,0,1-1.79.67c-.9,0-1.17-.16-1.27-.29a1.4,1.4,0,0,1-.09-.53c0-.14,0-.82,0-1.6Zm-.69,3a14.94,14.94,0,0,1,0,1.59c0,.22-.05.36-.2.39a1.1,1.1,0,0,1-.23,0,.06.06,0,0,0-.06.06s0,.06.12.06l.46,0h.31l.62,0c.33,0,.74,0,1.07,0a3.06,3.06,0,0,0,2.31-.85,3,3,0,0,0,.82-2.07A2.59,2.59,0,0,0,52,44.42,4.12,4.12,0,0,0,49,43.58l-1,0-.88,0c-.09,0-.12,0-.12.06l.06.06.26,0c.25,0,.29.16.31.41s0,.44,0,1.59Zm-6.5-.86a2.12,2.12,0,0,1,2.19-2.4c1.2,0,2.28.93,2.28,2.7,0,2.13-1.38,2.5-2.06,2.5A2.49,2.49,0,0,1,41.08,46.16Zm-.79.2a2.83,2.83,0,0,0,3,2.9,3,3,0,0,0,3.06-3,2.76,2.76,0,0,0-3-2.77A2.92,2.92,0,0,0,40.29,46.35Zm-6-.2a2.12,2.12,0,0,1,2.19-2.4c1.2,0,2.28.93,2.28,2.7,0,2.13-1.38,2.5-2.06,2.5A2.49,2.49,0,0,1,34.25,46.16Zm-.79.2a2.83,2.83,0,0,0,3,2.9,3,3,0,0,0,3.06-3,2.76,2.76,0,0,0-3-2.77A2.92,2.92,0,0,0,33.46,46.35Zm-1.78,2.19c0,.14-.06.17-.16.23a1.91,1.91,0,0,1-.82.14,2.72,2.72,0,0,1-2-.77,2.93,2.93,0,0,1-.81-2,2.29,2.29,0,0,1,.75-1.86,2.42,2.42,0,0,1,1.59-.48,2.18,2.18,0,0,1,1.76.57,1.1,1.1,0,0,1,.17.49c0,.07,0,.11.05.11s.09,0,.09-.16c0-.74,0-.94,0-1s0-.07-.09-.07a3.29,3.29,0,0,1-.62-.08,6.38,6.38,0,0,0-1.17-.12,3.83,3.83,0,0,0-2,.47,2.76,2.76,0,0,0-1.27,2.42,2.82,2.82,0,0,0,.91,2.1,4.3,4.3,0,0,0,4.14.46c.1-.05.1-.06.1-.4V47.7c0-.31,0-.53,0-.76s.08-.37.29-.41l.19,0,.06-.06c0-.05,0-.06-.12-.06l-.75,0-.9,0c-.09,0-.12,0-.12.06l.06.06.26,0c.31.06.33.15.33.75Zm-9.16-4.63,1,0c.73,0,.89.18.92.41v.08c0,.1,0,.13.06.13s.07,0,.07-.1,0-.62,0-.84c0,0,0-.09,0-.09l-.22,0a3.81,3.81,0,0,1-.55,0H20.88c-.09,0-.38,0-.6,0a2.61,2.61,0,0,1-.34-.09s-.06.1-.08.14-.16.72-.16.8a.06.06,0,0,0,.05.06s.06,0,.08-.07a1.18,1.18,0,0,1,.12-.23c.11-.17.29-.23.77-.23l1.1,0V47c0,.71,0,1.29,0,1.59s-.07.36-.23.4a1,1,0,0,1-.23,0s-.06,0-.06.05,0,.06.12.06l.79,0s.53,0,.94,0c.09,0,.12,0,.12-.06a.05.05,0,0,0-.06-.06l-.35,0c-.23,0-.27-.17-.29-.39s0-.88,0-1.59ZM17.3,49.25A2.34,2.34,0,0,0,18.51,49a1.44,1.44,0,0,0,.71-1.26c0-.63-.32-1.14-1.25-1.78l-.22-.15c-.75-.51-1-.78-1-1.25s.46-.8,1-.8.94.28,1,.36a1.36,1.36,0,0,1,.11.36c0,.06,0,.1.07.1s.06-.05.06-.16c0-.5,0-.75,0-.78s0-.05-.08-.05a1,1,0,0,1-.27,0,3.7,3.7,0,0,0-.79-.09c-1,0-1.69.52-1.69,1.39,0,.51.27,1,1.09,1.58l.35.26c.68.5,1,.75,1,1.28s-.39,1-1.14,1a1.12,1.12,0,0,1-1.2-.73,1.09,1.09,0,0,1,0-.27c0-.06,0-.09-.07-.09s-.06,0-.06.12,0,.42,0,.78c0,.2,0,.23.11.28A2.8,2.8,0,0,0,17.3,49.25Zm-7.2-3.09a2.12,2.12,0,0,1,2.19-2.4c1.2,0,2.28.93,2.28,2.7,0,2.13-1.38,2.5-2.06,2.5A2.49,2.49,0,0,1,10.1,46.16Zm-.79.2a2.83,2.83,0,0,0,3,2.9,3,3,0,0,0,3.06-3,2.76,2.76,0,0,0-3-2.77A2.92,2.92,0,0,0,9.31,46.35ZM7.53,43.68c0-.14-.06-.2-.11-.2s-.09.05-.12.12L5.08,48.17,2.77,43.59a.17.17,0,0,0-.16-.11s-.08.05-.09.13L2,48.42c0,.28,0,.55-.29.59l-.23,0s-.08,0-.08.05.05.07.13.07l.64,0c.06,0,.42,0,.71,0,.09,0,.14,0,.14-.07L2.94,49a1.24,1.24,0,0,1-.29,0,.21.21,0,0,1-.18-.21c0-.12,0-.26,0-.37l.29-3.33h0c.13.3.75,1.54,1,2s.69,1.34.89,1.71.19.34.26.34.11-.07.27-.39L7,45H7l.36,3.73c0,.14,0,.25,0,.26L7.32,49s0,.06.22.08,1.13,0,1.3,0,.16,0,.16-.07L8.93,49A1.62,1.62,0,0,1,8.44,49c-.31-.1-.36-.5-.39-.76Z"/><path class="cls-3" d="M52.32,44a.54.54,0,1,1,.54.54.53.53,0,0,1-.54-.54m.54.45a.45.45,0,1,0-.44-.45A.43.43,0,0,0,52.86,44.49Zm-.11-.14h-.09v-.62h.23c.15,0,.22.05.22.18a.16.16,0,0,1-.16.17l.18.27H53l-.16-.27h-.11Zm.11-.35c.08,0,.15,0,.15-.1s-.07-.09-.13-.09h-.13V44Z"/></svg>