<svg id="Layer_1" data-name="Layer 1" xmlns="http://www.w3.org/2000/svg" xmlns:xlink="http://www.w3.org/1999/xlink" viewBox="0 0 434 300"><defs><style>.cls-1{fill:none;}.cls-2{fill:#f2f2f2;}.cls-3{fill:#e6e6e6;}.cls-4{fill:url(#Mexico_City_Color);}</style><pattern id="Mexico_City_Color" data-name="Mexico City Color" width="62.5" height="59.57" patternUnits="userSpaceOnUse" viewBox="0 0 62.5 59.57"><rect class="cls-1" width="62.5" height="59.57"/><rect class="cls-2" width="62.5" height="59.57"/><path class="cls-3" d="M30,12.58a11.75,11.75,0,0,1-2.83-1.41l-.1.24a47.64,47.64,0,0,1,2.24,5.36c-2.1-.88-3.71-3.27-6.1-3.61l-.34.44,5.95,8.53c.19.68,1.07,1.37.58,2l-.68-.1L20,17a21.84,21.84,0,0,1-2.24-1.41v.83L22,24l-.15.58H21.2l-7.85-7-.34.24c.34,2.29,1.56,4.63,1.75,7l-.59.1L8.58,20.18l-.73.1c0,1.37.54,2.92.58,4.19-1.51,0-2.54-2-3.95-2.68l-.24.73L4,34.81V47.53c0,.39-.49.88,0,1.17l22.72.15.44-.59L27.54,39l.1-8.19a1.09,1.09,0,0,0-.49-1.07l-15.79-.34h-.44l-.24,1.07-.1,11.36c-.24.29-.1.78-.15,1.17l.34.2c3.66,0,6.68-.1,10.09.15L21.2,43l-.1-6.92c-1.22-.44-2.87-.15-4.09-.24-.88,1.37.78,3.56-1,4.34l-1.27-.1c-1.27-1.71-.49-4.24-.68-6.34.24-.78,1.17-.49,1.75-.68l7.6.1.58.93-.24,10.43c-.15.54-.64.68-.93,1.17l-14-.24c-.44-.24-1-.39-1.07-.93V38.75l.58-11L9,27.05l19.55.15a1.6,1.6,0,0,1,1.32,1L29.64,49a3.17,3.17,0,0,1-.83,2.24H2.48a1.76,1.76,0,0,1-1.07-1.51l.15-18.28L2,21,2.58,20l16.28-8c3.07-2.34,6.87-2.83,9.95-5.17.24-.2.63-.1.93-.1l.49.59Z"/><path class="cls-3" d="M61.18,46a11.76,11.76,0,0,0-2.83,1.41l-.1-.24a47.63,47.63,0,0,0,2.24-5.36c-2.1.88-3.7,3.27-6.09,3.61l-.34-.44L60,36.4c.2-.68,1.07-1.37.59-2l-.68.1-8.68,7A21.47,21.47,0,0,0,49,42.93V42.1l4.24-7.61-.15-.59h-.68l-7.85,7-.34-.24c.34-2.29,1.56-4.63,1.75-7l-.59-.1-5.61,4.78-.73-.1c0-1.37.54-2.92.59-4.19-1.51,0-2.54,2-3.95,2.68L35.44,36,35.2,23.72V11c0-.39-.49-.88,0-1.17l22.72-.14.44.58.39,9.26.1,8.19a1.1,1.1,0,0,1-.49,1.07l-15.79.34h-.44l-.24-1.07-.1-11.36c-.24-.29-.1-.78-.15-1.17l.34-.2c3.66,0,6.68.1,10.09-.15l.34.34-.1,6.92c-1.22.44-2.88.15-4.09.24-.88-1.37.78-3.56-1-4.34l-1.27.1c-1.27,1.71-.49,4.24-.68,6.34.25.78,1.17.49,1.75.68l7.6-.1.59-.93L55,14c-.15-.54-.63-.68-.93-1.17L40,13.1c-.44.24-1,.39-1.07.93v5.75l.58,11,.68.73,19.55-.15a1.6,1.6,0,0,0,1.32-1L60.84,9.49A3.18,3.18,0,0,0,60,7.24H33.69a1.76,1.76,0,0,0-1.07,1.51L32.76,27l.44,10.53.59.93,16.28,8c3.07,2.34,6.87,2.83,9.95,5.17.24.2.63.1.93.1l.49-.59Z"/></pattern></defs><title>feather-bg</title><rect class="cls-4" width="434" height="300"/></svg>